<svg width="47" height="48" viewBox="0 0 47 48" fill="none" xmlns="http://www.w3.org/2000/svg">
<g clip-path="url(#clip0_3_21)">
<path d="M23.5 47.7308C36.4787 47.7308 47 37.2095 47 24.2308C47 11.2521 36.4787 0.730774 23.5 0.730774C10.5213 0.730774 0 11.2521 0 24.2308C0 37.2095 10.5213 47.7308 23.5 47.7308Z" fill="white"/>
<path d="M25.6933 38.1741V25.4841H29.9233L30.55 20.4708H25.6933V17.3374C25.6933 15.9274 26.1633 14.9874 28.2 14.9874H30.8633V10.4441C30.3933 10.4441 28.8267 10.2874 27.1033 10.2874C23.3433 10.2874 20.68 12.6374 20.68 16.8674V20.4708H16.45V25.4841H20.68V38.1741H25.6933Z" fill="#3A2C1F"/>
</g>
<defs>
<clipPath id="clip0_3_21">
<rect width="47" height="47" fill="white" transform="translate(0 0.730774)"/>
</clipPath>
</defs>
</svg>
