<svg width="48" height="50" viewBox="0 0 48 50" fill="none" xmlns="http://www.w3.org/2000/svg">
<path d="M14.9389 39.3749L15.5512 39.7444C18.1227 41.2994 21.0712 42.122 24.0781 42.1234H24.0844C33.3183 42.1234 40.8333 34.4682 40.8371 25.0594C40.8388 20.5 39.0978 16.2124 35.9348 12.9872C34.3835 11.3966 32.5379 10.1353 30.5049 9.27638C28.4719 8.41743 26.2918 7.97787 24.091 7.98314C14.8499 7.98314 7.33469 15.6374 7.3314 25.0457C7.32685 28.2584 8.21478 31.4068 9.89254 34.1269L10.2911 34.7722L8.59841 41.0686L14.9389 39.3749ZM3.75885 45.9465L6.61859 35.3081C4.85491 32.1948 3.92705 28.6628 3.92815 25.0443C3.93281 13.7243 12.9742 4.51508 24.0847 4.51508C29.4762 4.51787 34.5369 6.65564 38.3428 10.5362C42.1488 14.4168 44.2428 19.575 44.2409 25.0608C44.236 36.3799 35.1932 45.5909 24.0844 45.5909H24.0756C20.7025 45.5895 17.388 44.7273 14.4439 43.0916L3.75885 45.9465Z" fill="#B3B3B3"/>
<path d="M3.552 45.7355L6.41174 35.0971C4.64503 31.9763 3.71703 28.4361 3.7213 24.8333C3.72596 13.5133 12.7673 4.30408 23.8778 4.30408C29.2694 4.30687 34.33 6.44465 38.136 10.3252C41.9419 14.2058 44.036 19.364 44.0341 24.8498C44.0291 36.1689 34.9864 45.3799 23.8775 45.3799H23.8688C20.4957 45.3785 17.1812 44.5163 14.2371 42.8806L3.552 45.7355Z" fill="white"/>
<path d="M23.8838 7.77211C14.6428 7.77211 7.12757 15.4264 7.12428 24.8347C7.11973 28.0473 8.00766 31.1957 9.68542 33.9158L10.084 34.5614L8.39129 40.8578L14.7321 39.1639L15.3444 39.5334C17.9159 41.0884 20.8644 41.9107 23.8712 41.9123H23.8775C33.1115 41.9123 40.6267 34.2572 40.6303 24.8484C40.6372 22.6058 40.2075 20.3841 39.3661 18.3119C38.5246 16.2397 37.288 14.3581 35.728 12.7762C34.1766 11.1855 32.3309 9.92425 30.2979 9.0653C28.2648 8.20635 26.0848 7.7668 23.8838 7.77211Z" fill="#3A2C1F"/>
<path fill-rule="evenodd" clip-rule="evenodd" d="M18.84 16.2507C18.4625 15.3963 18.0652 15.379 17.7066 15.3642L16.7412 15.3522C16.4054 15.3522 15.8597 15.4806 15.3984 15.9941C14.937 16.5077 13.6355 17.749 13.6355 20.2736C13.6355 22.7982 15.4403 25.2378 15.6917 25.5805C15.9432 25.9233 19.1758 31.2692 24.2951 33.3261C28.5492 35.0354 29.4149 34.6954 30.3386 34.61C31.2624 34.5246 33.3184 33.3688 33.7378 32.1705C34.1572 30.9723 34.1575 29.9457 34.0317 29.731C33.906 29.5164 33.5701 29.3888 33.0661 29.132C32.562 28.8752 30.0863 27.634 29.6247 27.4626C29.1631 27.2912 28.8275 27.2061 28.4914 27.7197C28.1553 28.2333 27.1912 29.3885 26.8973 29.731C26.6034 30.0735 26.31 30.1165 25.8059 29.86C25.3018 29.6035 23.6801 29.0614 21.7559 27.3133C20.2587 25.9531 19.2481 24.2734 18.9539 23.7601C18.6597 23.2468 18.9227 22.9688 19.1753 22.7131C19.4013 22.4831 19.6788 22.1138 19.9311 21.8144C20.1834 21.5149 20.2664 21.3008 20.4341 20.9588C20.6017 20.6169 20.5182 20.3166 20.3921 20.0601C20.2661 19.8036 19.2876 17.2655 18.84 16.2507Z" fill="white"/>
</svg>
